<svg xmlns="http://www.w3.org/2000/svg" width="1100" height="665" viewBox="0 0 1100 665"><rect width="1100" height="665" fill="#fcf1e8"/><text x="50" y="55" font-family="Arial" font-size="28" font-weight="700" fill="#56301e">Technical structure</text><text x="50" y="89" font-family="Arial" font-size="16" fill="#56301e">Source-backed implementation elements · Link Management Service</text><rect x="50" y="120" width="1000" height="80" rx="12" fill="white"/><circle cx="84" cy="160" r="17" fill="#56301e"/><text x="84" y="166" font-family="Arial" font-size="16" text-anchor="middle" fill="#fcf1e8">01</text><text x="120" y="152" font-family="Arial" font-size="18" fill="#56301e">React account/dashboard UI</text><rect x="50" y="219" width="1000" height="80" rx="12" fill="white"/><circle cx="84" cy="259" r="17" fill="#56301e"/><text x="84" y="265" font-family="Arial" font-size="16" text-anchor="middle" fill="#fcf1e8">02</text><text x="120" y="251" font-family="Arial" font-size="18" fill="#56301e">Authentication and URL services</text><rect x="50" y="318" width="1000" height="80" rx="12" fill="white"/><circle cx="84" cy="358" r="17" fill="#56301e"/><text x="84" y="364" font-family="Arial" font-size="16" text-anchor="middle" fill="#fcf1e8">03</text><text x="120" y="350" font-family="Arial" font-size="18" fill="#56301e">MongoDB storage</text><rect x="50" y="417" width="1000" height="80" rx="12" fill="white"/><circle cx="84" cy="457" r="17" fill="#56301e"/><text x="84" y="463" font-family="Arial" font-size="16" text-anchor="middle" fill="#fcf1e8">04</text><text x="120" y="449" font-family="Arial" font-size="18" fill="#56301e">Redis cache</text><rect x="50" y="516" width="1000" height="80" rx="12" fill="white"/><circle cx="84" cy="556" r="17" fill="#56301e"/><text x="84" y="562" font-family="Arial" font-size="16" text-anchor="middle" fill="#fcf1e8">05</text><text x="120" y="548" font-family="Arial" font-size="18" fill="#56301e">Expiry cleanup</text></svg>