<svg xmlns="http://www.w3.org/2000/svg" width="1600" height="1000" viewBox="0 0 1600 1000"><rect width="1600" height="1000" fill="#10151E"/><g font-family="Arial, Helvetica, sans-serif"><rect x="64" y="66" width="8" height="80" rx="4" fill="#7DDC88"/><text x="96" y="90" font-size="19" fill="#7DDC88" font-weight="700">PRODUCT PORTFOLIO  /  SOURCE-BASED OVERVIEW</text><text x="96" y="150" font-size="45" fill="#FFFFFF" font-weight="700">FileFluent</text><text x="96" y="208" font-size="25" fill="#BDC7D6" font-weight="400">Turn administrative PDF text into structured metadata.</text><rect x="72" y="320" width="340" height="240" rx="22" fill="#1B2432" stroke="#344155"/><text x="100" y="366" font-size="22" fill="#7DDC88" font-weight="700">01</text><text x="100" y="414" font-size="22" fill="#FFFFFF" font-weight="700">PDF INPUT</text><text x="100" y="465" font-size="23" fill="#BDC7D6" font-weight="400">Upload interface</text><path d="M 419 439 h 25 m -9 -8 l 9 8 -9 8" fill="none" stroke="#7DDC88" stroke-width="3"/><rect x="458" y="320" width="340" height="240" rx="22" fill="#1B2432" stroke="#344155"/><text x="486" y="366" font-size="22" fill="#7DDC88" font-weight="700">02</text><text x="486" y="414" font-size="22" fill="#FFFFFF" font-weight="700">TEXT EXTRACTION</text><text x="486" y="465" font-size="23" fill="#BDC7D6" font-weight="400">Sample-PDF parser</text><path d="M 805 439 h 25 m -9 -8 l 9 8 -9 8" fill="none" stroke="#7DDC88" stroke-width="3"/><rect x="844" y="320" width="340" height="240" rx="22" fill="#1B2432" stroke="#344155"/><text x="872" y="366" font-size="22" fill="#7DDC88" font-weight="700">03</text><text x="872" y="414" font-size="22" fill="#FFFFFF" font-weight="700">FIELD MATCHING</text><text x="872" y="465" font-size="23" fill="#BDC7D6" font-weight="400">Keyword-based field</text><text x="872" y="496" font-size="23" fill="#BDC7D6" font-weight="400">rules</text><path d="M 1191 439 h 25 m -9 -8 l 9 8 -9 8" fill="none" stroke="#7DDC88" stroke-width="3"/><rect x="1230" y="320" width="340" height="240" rx="22" fill="#1B2432" stroke="#344155"/><text x="1258" y="366" font-size="22" fill="#7DDC88" font-weight="700">04</text><text x="1258" y="414" font-size="22" fill="#FFFFFF" font-weight="700">METADATA VIEW</text><text x="1258" y="465" font-size="23" fill="#BDC7D6" font-weight="400">File details and</text><text x="1258" y="496" font-size="23" fill="#BDC7D6" font-weight="400">export</text><rect x="72" y="606" width="1456" height="162" rx="22" fill="#7DDC88"/><text x="102" y="650" font-size="17" fill="#142230" font-weight="700">PRODUCT IDEA</text><text x="102" y="702" font-size="36" fill="#10151E" font-weight="700">Make document structure visible</text><text x="80" y="825" font-size="23" fill="#DCE3ED" font-weight="400">Prototype · extraction currently uses a fixed sample PDF</text><text x="80" y="875" font-size="21" fill="#8D9DB3" font-weight="400">Observed implementation: React, JavaScript, Express, Multer, pdf-parse</text><text x="80" y="946" font-size="18" fill="#8090A6" font-weight="400">Source-based product overview · Not an application screenshot</text></g></svg>