<svg xmlns="http://www.w3.org/2000/svg" width="1100" height="665" viewBox="0 0 1100 665"><rect width="1100" height="665" fill="#f8f3eb"/><text x="50" y="55" font-family="Arial" font-size="28" font-weight="700" fill="#4a3529">Technical structure</text><text x="50" y="89" font-family="Arial" font-size="16" fill="#4a3529">Source-backed implementation elements · AI Alt Text Generator</text><rect x="50" y="120" width="1000" height="80" rx="12" fill="white"/><circle cx="84" cy="160" r="17" fill="#4a3529"/><text x="84" y="166" font-family="Arial" font-size="16" text-anchor="middle" fill="#f8f3eb">01</text><text x="120" y="152" font-family="Arial" font-size="18" fill="#4a3529">WordPress hooks</text><rect x="50" y="219" width="1000" height="80" rx="12" fill="white"/><circle cx="84" cy="259" r="17" fill="#4a3529"/><text x="84" y="265" font-family="Arial" font-size="16" text-anchor="middle" fill="#f8f3eb">02</text><text x="120" y="251" font-family="Arial" font-size="18" fill="#4a3529">Admin interfaces</text><rect x="50" y="318" width="1000" height="80" rx="12" fill="white"/><circle cx="84" cy="358" r="17" fill="#4a3529"/><text x="84" y="364" font-family="Arial" font-size="16" text-anchor="middle" fill="#f8f3eb">03</text><text x="120" y="350" font-family="Arial" font-size="18" fill="#4a3529">Bulk processing</text><rect x="50" y="417" width="1000" height="80" rx="12" fill="white"/><circle cx="84" cy="457" r="17" fill="#4a3529"/><text x="84" y="463" font-family="Arial" font-size="16" text-anchor="middle" fill="#f8f3eb">04</text><text x="120" y="449" font-family="Arial" font-size="18" fill="#4a3529">Generation adapters</text><rect x="50" y="516" width="1000" height="80" rx="12" fill="white"/><circle cx="84" cy="556" r="17" fill="#4a3529"/><text x="84" y="562" font-family="Arial" font-size="16" text-anchor="middle" fill="#f8f3eb">05</text><text x="120" y="548" font-family="Arial" font-size="18" fill="#4a3529">License handling</text></svg>