<svg xmlns="http://www.w3.org/2000/svg" width="1600" height="1000" viewBox="0 0 1600 1000"><rect width="1600" height="1000" fill="#10151E"/><g font-family="Arial, Helvetica, sans-serif"><rect x="64" y="66" width="8" height="80" rx="4" fill="#899FFD"/><text x="96" y="90" font-size="19" fill="#899FFD" font-weight="700">PRODUCT PORTFOLIO  /  SOURCE-BASED OVERVIEW</text><text x="96" y="150" font-size="45" fill="#FFFFFF" font-weight="700">Spaceflight Portfolio</text><text x="96" y="208" font-size="25" fill="#BDC7D6" font-weight="400">Navigate a career portfolio as a spaceflight experience.</text><rect x="72" y="320" width="340" height="240" rx="22" fill="#1B2432" stroke="#344155"/><text x="100" y="366" font-size="22" fill="#899FFD" font-weight="700">01</text><text x="100" y="414" font-size="22" fill="#FFFFFF" font-weight="700">FLIGHT</text><text x="100" y="465" font-size="23" fill="#BDC7D6" font-weight="400">Interactive player</text><text x="100" y="496" font-size="23" fill="#BDC7D6" font-weight="400">controls</text><path d="M 419 439 h 25 m -9 -8 l 9 8 -9 8" fill="none" stroke="#899FFD" stroke-width="3"/><rect x="458" y="320" width="340" height="240" rx="22" fill="#1B2432" stroke="#344155"/><text x="486" y="366" font-size="22" fill="#899FFD" font-weight="700">02</text><text x="486" y="414" font-size="22" fill="#FFFFFF" font-weight="700">NAVIGATION</text><text x="486" y="465" font-size="23" fill="#BDC7D6" font-weight="400">Cinematic camera</text><text x="486" y="496" font-size="23" fill="#BDC7D6" font-weight="400">movement</text><path d="M 805 439 h 25 m -9 -8 l 9 8 -9 8" fill="none" stroke="#899FFD" stroke-width="3"/><rect x="844" y="320" width="340" height="240" rx="22" fill="#1B2432" stroke="#344155"/><text x="872" y="366" font-size="22" fill="#899FFD" font-weight="700">03</text><text x="872" y="414" font-size="22" fill="#FFFFFF" font-weight="700">CAREER STAGES</text><text x="872" y="465" font-size="23" fill="#BDC7D6" font-weight="400">3D scene destinations</text><path d="M 1191 439 h 25 m -9 -8 l 9 8 -9 8" fill="none" stroke="#899FFD" stroke-width="3"/><rect x="1230" y="320" width="340" height="240" rx="22" fill="#1B2432" stroke="#344155"/><text x="1258" y="366" font-size="22" fill="#899FFD" font-weight="700">04</text><text x="1258" y="414" font-size="22" fill="#FFFFFF" font-weight="700">INTERFACE</text><text x="1258" y="465" font-size="23" fill="#BDC7D6" font-weight="400">HUD and visual effects</text><rect x="72" y="606" width="1456" height="162" rx="22" fill="#899FFD"/><text x="102" y="650" font-size="17" fill="#142230" font-weight="700">PRODUCT IDEA</text><text x="102" y="702" font-size="36" fill="#10151E" font-weight="700">Experience a career journey as a spaceflight</text><text x="80" y="825" font-size="23" fill="#DCE3ED" font-weight="400">Interactive 3D prototype · deployment not verified</text><text x="80" y="875" font-size="21" fill="#8D9DB3" font-weight="400">Observed implementation: React, TypeScript, Three.js, React Three Fiber, GSAP, Vite</text><text x="80" y="946" font-size="18" fill="#8090A6" font-weight="400">Source-based product overview · Not an application screenshot</text></g></svg>