<svg xmlns="http://www.w3.org/2000/svg" width="1100" height="764" viewBox="0 0 1100 764"><rect width="1100" height="764" fill="#fff2ed"/><text x="50" y="55" font-family="Arial" font-size="28" font-weight="700" fill="#572838">Technical structure</text><text x="50" y="89" font-family="Arial" font-size="16" fill="#572838">Source-backed implementation elements · CIRCLE EDGE</text><rect x="50" y="120" width="1000" height="80" rx="12" fill="white"/><circle cx="84" cy="160" r="17" fill="#572838"/><text x="84" y="166" font-family="Arial" font-size="16" text-anchor="middle" fill="#fff2ed">01</text><text x="120" y="152" font-family="Arial" font-size="18" fill="#572838">React feed-based UI</text><rect x="50" y="219" width="1000" height="80" rx="12" fill="white"/><circle cx="84" cy="259" r="17" fill="#572838"/><text x="84" y="265" font-family="Arial" font-size="16" text-anchor="middle" fill="#fff2ed">02</text><text x="120" y="251" font-family="Arial" font-size="18" fill="#572838">NestJS REST API</text><rect x="50" y="318" width="1000" height="80" rx="12" fill="white"/><circle cx="84" cy="358" r="17" fill="#572838"/><text x="84" y="364" font-family="Arial" font-size="16" text-anchor="middle" fill="#fff2ed">03</text><text x="120" y="350" font-family="Arial" font-size="18" fill="#572838">Domain modules for people, learning and local activity</text><rect x="50" y="417" width="1000" height="80" rx="12" fill="white"/><circle cx="84" cy="457" r="17" fill="#572838"/><text x="84" y="463" font-family="Arial" font-size="16" text-anchor="middle" fill="#fff2ed">04</text><text x="120" y="449" font-family="Arial" font-size="18" fill="#572838">Modular REST API</text><rect x="50" y="516" width="1000" height="80" rx="12" fill="white"/><circle cx="84" cy="556" r="17" fill="#572838"/><text x="84" y="562" font-family="Arial" font-size="16" text-anchor="middle" fill="#fff2ed">05</text><text x="120" y="548" font-family="Arial" font-size="18" fill="#572838">Entity/repository/service pattern</text><rect x="50" y="615" width="1000" height="80" rx="12" fill="white"/><circle cx="84" cy="655" r="17" fill="#572838"/><text x="84" y="661" font-family="Arial" font-size="16" text-anchor="middle" fill="#fff2ed">06</text><text x="120" y="647" font-family="Arial" font-size="18" fill="#572838">Community and learning domain</text></svg>